<?xml version="1.0" encoding="utf-8"?>
<!-- Generator: Adobe Illustrator 19.2.1, SVG Export Plug-In . SVG Version: 6.00 Build 0)  -->
<svg version="1.1" id="Layer_1" xmlns="http://www.w3.org/2000/svg" xmlns:xlink="http://www.w3.org/1999/xlink" x="0px" y="0px"
	 viewBox="0 0 100 51.5" style="enable-background:new 0 0 100 51.5;" xml:space="preserve">
<path d="M78.2,48.6l-0.2-0.3l-0.3-0.1l-0.2,0.1l-0.1,0.4l0.1,0.3l0.6,0.3l0.2,0.3l-0.3,0.1l-0.7,0l-0.1,0.1l0.1,0.2l0.6,0.3l0.2,0.3
	l0.2-0.5l0.2-0.6l0-0.6L78.2,48.6z M98.4,41.6l-0.9,2.1L97,44.8l-0.3,0.7l-0.1,0.8l-0.1,0.3l-0.7,1l-0.5,0.9c0.1,0,0.2,0,0.4,0
	l0.1-0.3l0.8-0.9l0.9-2.3l0.4-1.7l0.8-1.5l0.2-0.8h-0.1L98.4,41.6z M98.6,36.6c-4.5,0-9,0-13.5,0L85,35.3
	C84.4,23.5,83.9,11.8,83.3,0C55.6,0,27.9,0,0.2,0L0,14.9l0,0.1l0.1,0l0.2-0.1l0.3-0.2l2.5-2.3l0.2-0.1l0.9-0.2l0.2-0.1L4.5,12
	l0.3-0.6L5,11.1l0.3-0.3l0.6-0.5l1-0.6L7,9.7l0.1-0.1l0.3-0.4l0.4-0.3l0.1-0.1L8,8.7l0.1-0.1l0.1-0.1l0.3-0.7l0.1-0.1l0.1-0.1
	l0.1-0.1L9.5,7l0.2,0l0.2,0l0.4,0.1l0.4,0.2l0.4,0.4l0.2,0.1l0.2,0l0.2,0l0.3-0.1l0.1-0.1l0.1-0.1l0.2-0.4l1.4-1.4L14,5.4l0.2-0.4
	L14.3,5l0.1-0.1l0.1-0.1l0.1-0.1l0.1,0l0.4-0.1l0.1-0.1l0.1-0.1l0-0.1l-0.1-0.2l0-0.1l0-0.1l0.1-0.2l0.1-0.1l0.3-0.5l0.1-0.2
	l0.1-0.2l0.1-0.1L16,2.5l0.1,0l0.1,0l0.2,0.1l0.1,0.1L16.6,3l0.3,0.2l0,0.1l0,0.1l-0.1,0l-0.2,0.1l-0.1,0.1l0,0.1l0,0.1l0,0.1v0.1
	l0,0.1l0,0l0.1,0.2l0,0l0.1,0.1l0.8,0.4l0.4,0.3L18,5l0.1,0.1l0.5,0.2l1.8,0.3l0.1-0.1l0.8-0.2l1.6,0.2L23.6,5l0.1-0.3l-0.1-0.1
	l-0.4-0.2l0.1-0.4l0.4-0.1l0.4,0l0.3-0.1l-0.6-0.9L24,2.7l0.2,0l0.4,0.1l0.2,0l0.6-0.3l0.4-0.1l0.9,0.2l0.4,0l0.2-0.1l0.4-0.5
	L28,1.6l0.7-0.8l0.2-0.1l0.2-0.1l0.3-0.1l1.2,0.1l1,0.7L33.2,3l0.4,0.3l0.5,0.2l0.5,0L35,3.3l0.2-0.1l0.6,0.2L36,3.3l0.1-0.2l0.3,0
	l0.3,0.1l0.2,0.1l0.3,0.4l-0.1,0.4l-0.4,0.3l-0.6,0.1l0.1,0.3L36.6,6h0.1l0.1-0.3l0.1-0.3l0.2-0.2l0.2,0.1l0.1,0.3l-0.1,0.2L37.3,6
	l0,0.2l0.3,0.3h0.3l0.4-0.1l0.4,0v0.2l-0.3,0.1l-0.1,0.2v0.3l0.1,0.4L37.8,8l0.3,0.3l1,0.4l0.2,0.5l-0.1,0.5l-0.2,0.5l0,0.5l0.3,0.6
	l0,0l0.4,0.2H41l0.4,0.1l1,0.4l1,0.3l0.2,0.2l0.4,0.7l0.4,0.3l0.5,0.1l0.4,0.2l0.2,0.5l-0.1,0.6l-0.3,0.4L44.6,16l-0.2,0.5l0.1,0.4
	l0.3,0.4l0.3,0.3l0.8,0.8l0.5,0.3l2,0.2l0.7,0.2l0.7,0.4l0.5,0.5l0.1,0.4l0.1,0.5l0.1,0.4l0.3,0.2l0.3,0.1l0.8,0.3l0.7,0.1l0.3,0.2
	l0.3,0.3l1.7-1.9l2.5,3.6l-2,2.4l0,0.5l0.4,0.7L55.8,28l-0.1,0.2l-0.1,0.1l-0.1,0.1l0.2,0.6l-0.3,0.3l-0.9,0.3l-0.3,0.2L54,29.9
	l-0.2,0.2l-0.1,0.3l-0.1,0.5l-0.2,0.5l-0.1,0.5l-0.1,0.2L52.9,32l-0.5,0L52.3,32l-0.2,0.2L52,32.2l-0.1,0.1l-0.1,0.2l-0.1,0.3l0,0.2
	l0.1,0l0.2-0.1l0.2,0.2l-0.6,0.3l-0.2,0.1l-0.5,0.2l-0.3,0.6l-0.1,0.6l-0.2,0.3l-0.2,0.3l0,0.8l0.1,0.9l0.1,0.5l0.2,0.5l0.4,0.6
	l0.5,0.4l0.5-0.2l0.2-0.2l0.5-0.2l0.3-0.3l0.5-1l-0.2-0.4l-0.1-0.1L53,36.6l0.3-0.2l0.3-0.2l0,0.1l0,0l0,0l0.1,0.1v0.2l-0.1,0.2
	l0,0.3l0.2,0.3l0.2,0.2l0.3-0.1l0.3-0.2l0.4-0.5l0.1-0.2l0.1-0.2l0.1-0.3l0-0.3l0.4,0.4L56,37l0.6,2.1l0.3,0.5l1.5,1.7l0.6,0.4
	l0.5,0l0.1-0.7l-0.2-0.8l-0.2-0.7l-0.6-1.2l0.7,0.5l0.5,0.6l0.3,0.8l0.1,1.1l0.1,0.3l0.2,0.4l0.4,0.6l0.3,0.3l0.3,0.1l2.1-0.3
	l0.8,0.1l0.6,0.4l0.3,0.3l0.3,0.2l0.3,0.3l0.3,0.5l0.1,0.4l0.2,0.7l0,0.2l0.3,0.2l0.2-0.2l0.1-0.7l0.5,0.6l0.3,0.2l0.2-0.4l0.1-0.2
	l0.1-0.2l0.1-0.3l0-0.2l-0.1-0.4l0-0.3l0.5,0.5l0.2,0.9L69,46l0.3,0.4l0.6,0.2l1.6,1.5l0-0.4l-0.1-0.3l-0.2-0.2L71,47l0-0.4l0.2-0.5
	l0.1-0.6l-0.1-0.5l-0.7-1.1l-0.6-0.5l-0.2-0.2l-0.1-0.5l0.1-0.4l0.2-0.4l0.1-0.5l-0.2-0.4l-0.5,0l-0.6,0.1l-0.5,0l-0.5-0.3l-0.4-0.5
	l-0.3-0.6L67,39.1l-0.2-0.2l-1.5-0.7l-0.8-0.7L64,36.7l-0.4-1l-0.1-1.1l0-0.2l-0.1-0.2l0.2-0.2l-0.1-0.4L63.2,33l-0.1-2.1l0-0.3
	l0-0.2l0.1-0.2l0.2,0.7l0.7,4.4l0.1,0.2l0.2,0.2l1.5,2l0.4,0.3L67,38l0.2,0.1l0.4,0.2l0.2,0.2l0,0.2l0,0.2l0.1,0.3l0.3,0.4l0.3,0.2
	l0.8,0l0.5-0.2L70,39l-0.2-0.6l-0.2-0.5l-0.6-1L67.4,35L67,33.9l0-0.6l0.2-1.8l-0.1-0.5l-0.2-0.5l-0.1-0.6l0.2-0.6l-0.6-0.7L66.1,28
	l0-0.6l0.2-0.4l0.8-0.5l0.3-0.4l0.1-0.6l-0.2,0l-0.7,0.4l-0.2-0.2l0.3-0.9l-0.2-0.2l-0.1-0.2l0-0.1l0-0.1l0.5,0l0.2,0l0.2,0.1
	l0.4-0.4l-0.2-0.4L66.7,23l-0.2-0.3l-0.2-0.4l0-0.3l0.4-0.1l0.4,0.3l0.8,0.9l0.4,0.2l0.2-0.3l-0.3-0.7l-0.9-1.5l-0.5-0.6L66.5,20
	l-0.5-0.2l-0.2-0.2l-0.2-0.3l0-0.3l0.1-0.2l0.3-0.1l0.2,0.1l0.2,0.3l0.3,0.6l1.3,1.3l0.2-0.1l0.1-0.2l0.2-0.1l0.5,0l0.4-0.1l0.1-0.3
	l-0.3-0.5l-0.4-0.3l-1.2-0.6l-0.5-0.1l-0.2-0.1l-0.1-0.2l-0.1-0.3l0.1-0.2l0.2,0.1l0.7,0.6l0.3-0.2l0.3,0.1l0.2,0.2l0.1,0.3H69
	l0.1-0.6l-0.2-0.6L68.6,17L68.3,16L68,16l-0.5,0.3l-0.2-0.2l-0.3-0.5l-0.1-0.1l-0.1-0.2L66.6,15l-0.2-0.3l-0.7-0.2l-0.1-0.2L65.5,14
	l-0.2-0.3l-0.2,0l-0.4-0.1l-0.3-0.2l0.1-0.1l0.6,0l0.2-0.1l0.2-0.2l0.3,0.2l1.1,0.5l0.3,0.3l0.3,0.3l0.2,0.2l0.2-0.1l0.1,0.2
	l0.2-0.2l0.2,0l0.2,0.1l0.2,0.2l0.9-0.6v-0.2L69,14l-0.6-0.5L68,12.8L67.6,12l0.7,0.2l0.2,0.1l0.4,0.7l0.2,0.3l0.3,0.2l0.2-0.3
	l0-0.2l-0.7-1l-0.2-0.4l0.1-0.2l1.2,0.3l0.1-0.1l-0.2-0.4l0.3-0.2l0.2,0l0.2-0.1l0.2-0.3h-0.1l0-0.5L70.4,10l-0.6-0.1l-0.4-0.3
	l1.7-0.4l0.3,0.1l0.4,1.3l0.2,1.3l0.7-0.9l0.2-0.1l0-0.2l-0.2-0.3L72.5,10l0.3-2.2l0.1-0.1l0.1-0.3l0.2-0.2h0.2l0.2,0.2l0,0.2
	l-0.1,0.6l-0.2,1.2l0.1,0.6l0.4,0.4l0.6-0.5L75.7,9L76.8,8L77,7.7L77,7.3l-0.2-0.1L76,6.9l-0.2-0.3L76.4,5l0.2-0.2l0.2-0.1l0.3,0
	l1.5,0L79,4.5l0.4-0.7l0.3-0.3L80,3.4l-0.3,1.1l-0.2,0.5l-0.2,0.4l-0.6,0.8l-0.2,0.5l0.1,0.5L79,6.9l1.6-1.3L81,5.1l0.4-0.5l0.4-0.4
	L82.3,4l-0.2,0.7l-0.3,0.7l-0.4,0.6l-0.6,0.3l0.2,0.5L81.5,7l0.7,0.4v0.2l-0.6-0.1l-1-0.3L80,7.2l-0.4,0.2l-0.5,0.4l-0.9,1l-0.1,0.5
	l0.6,0.2l2.6,0l0.6,0.2l0.3,0.4l-0.6,0l-0.2,0l-1,0l-2.5-0.1l-2,0.2l-0.1,0.1l-0.2,0.6l-0.1,0.2l-0.2,0.1l-0.5,0.1l-0.2,0.2L74.5,12
	l0,0.6l-0.1,0.3l-1.1,2.1l-0.4,1l-0.1,0.2l-0.1,0.3l0,0.3l0.5,0.2l0.2,0.3l0.1,0.3l0,0.2l-0.1,1.3l0,0.5l0.2,0.3l0.4-0.4l0.2-1.1
	l0.3-1.1l0.8-0.4v0.2L75,17.3l0.5,0.2l0.5-0.2l0.5-0.4l0.5-0.2l-0.3,0.5l-1,1l-0.4,0.7l0.2,0.2l-0.3,0.1l-0.5,0.1l0.1,0.3l0.1,0.2
	L75,20l0.2,0.1l-0.1,0.6L74.7,21l-0.5,0.2l-0.5,0.1l-0.6-0.1l-0.4-0.2l-0.6-0.6l-0.2-0.2L71.6,20l-0.2,0.1l-0.2,0.7l-0.3,0.6
	l-0.1,0.2l-0.1,0.7l-0.4,2.2l0,0.5l0.3,0l0.5-0.3l0.2-0.3l-0.1-0.2l-0.2-0.3L71,23.6l0.1-0.3l0.2-0.2l0.2-0.1l0.7-0.1l0.1,0l0.2-0.1
	l0-0.1l0.2-0.2l0.2-0.2l0.1,0l0.2-0.5l0.4,0.1l0.7,0.6L74.2,23l0,0.5l0.1,0.4l0.3,0.2l0.1-0.2l0.2-0.7l0.1-0.2l0.3,0l0,0.3L75,23.9
	l0.1,0.1l0.9,0.4l-0.5,0.3L75,25l-0.5,0.4l-0.1,0.8l0.3,0.7l0.5,0.1l0.5-0.3l0.3-0.5l0.1,0.5l-0.2,0.5l-0.3,0.3l-0.3,0.1l-0.4-0.1
	l-0.4-0.2l-0.4-0.3l-0.3-0.3l-0.2-0.7L73.6,26l-0.2,0l-0.2-0.1l-0.2-0.4l-0.3-0.2l-0.4,0.2L71.6,26l0,0.2l-0.1,0.3L71,28.2l-0.2,0.5
	l-0.1,0.4l-0.1,0.7l0.1,0.2l0.3,0l0.3-0.2l0.2-0.2l-0.1-0.4l0-0.7l0.1-0.7l0.2-0.4l0.3-0.3l0,0.2l-0.2,1.2l0.2,0.3l0.4-0.4l0.7-1
	l0.4,0.2l-0.1,0.5L73.3,29l0.3,0.2l0.2,0.7l0.2,0.1l0.3-0.1l0.1-0.3l0.1-0.4l0.2-0.3l0.1,0.3l0,0.3l-0.1,0.2l-0.1,0.2l0.2,0.4l0.4,0
	l0.5-0.1l0.5,0v0.2l-0.3,0.1l-0.6,0.3L75,30.7v0.2l0.4,0.2l0.3-0.1l0.3-0.2l0.3-0.1l-0.1,0.6l0.4,0.5l0.6,0.4l0.5,0.1l0.5-0.2
	l0.3-0.4l0.5-1h0.1l0.1,0.1l0.1,0.1l-0.2,0.4l-0.1,0.9l-0.3,0.5l-0.3,0.2L78.3,33l-0.7,0.1l-2.3-0.9l-0.4,0.1l-0.2-0.2l-0.2-0.2
	l0.1-0.1l0.3-0.3l-0.3,0L74,31.8l-0.3,0.1h-0.4l-1-0.2l0.2,0.4l0.1,0.1l0.1,0.1v0.2l-0.5,0.6l-0.2,0.4l0.3,0.2l0.7,0l0.3-0.1
	l0.2-0.2l0.1-0.2l0-0.2l0.1-0.1l0.3,0l0.2,0l0.1,0l0.1,0.1l0.1,0.1l0.1,0.3l-0.3,0.4l0.1,0.3L74,34.3l-0.5,0.2L73,34.7l-0.2,0.5
	l-0.1,0.7l-0.2,0.4l-0.2-0.1l-0.1-0.7L72,35.3l-0.4-0.1l-0.3,0.2l0,0.6l0.1,0.1l0.2,0.2l0.2,0.2l0.1,0.6l0.1,0.3l0.2,0.3l0.1,0.2
	l0.7,1.1l0.4,0.7l0.1,0.8h0.1l0.1-0.6l-0.3-1.3l0.2-0.2l0.4,0.3l1.3,1.7l0.2,0.5l0.2,0.2l0.6,0.2l0.2,0.2l0.7,1.3l0.2,0.2l0.2-0.3
	l0.3-0.7l0-0.4l0-0.4l-0.2-0.3l-0.2-0.1l0.4-0.7l0.6-0.8l0.6-0.3l0.2,0.6L79.3,40l-0.6,0.3l-0.1,0.4l0.1,0.3l0.2,0.2l0.2,0.2
	l0.1,0.2l0,0.3l0,0.3l0,0.2l0.1,0.2l0.2-0.3l0.6-1.7l0.1-0.2l1.2-1.3l0.1-0.3l0.1-0.3l0.1-0.3l0.2-0.1l0.3,0l0.1,0.1L82,38.3
	l-0.1,0.6l-0.2,0.4l-0.7,1.2l-0.3,0.6l-0.1,0.6l0.2,0.6l0.4,0.2l1,0.1l0.4,0.2l-0.8,0.4l-0.9,0.3L80.1,44l-0.3,1.1l0,0.6l0.1,0.2
	L80,46l0.2-0.1l0-0.2l0-0.3l0.1-0.2l0.5-0.1l1,0.1l0.5-0.2l0.3,0.1l0.4,0l0.3,0.1l0.1,0.3l-0.2,0.2l-0.7,0.1l-0.2,0.1l0.1,0.2
	l-0.1,0.3l-0.2,0.2L82,46.7l-0.2,0.1V47l0.1,0.1l0,0l0,0l0,0.1l0.3-0.2l0.3-0.1l0.6,0l0.3-0.1l0.2-0.3l0.2-0.2l0.3,0.1L84,46.9l-1,1
	l-0.2,0.3l-0.1,0.1l-0.6,0.1l-0.1,0.2L81.7,49l-0.5,0.8L81,49.9l0.1,0h0.1l0,0l0,0.1h0.2l0.1-0.2l0.1-0.1l0.2-0.1l0.2,0l-0.1,0.4
	l-0.2,0.2l-0.2,0.2l-0.1,0.2l0,0.2l0.1,0.1l0.1,0.1l0,0.2l0.2,0.1l0.4-0.3l0.7-0.6l0.5-0.4l0.5-0.1l2,0.2l0.4,0.1l0.2,0.1
	c0.1-0.3,0.2-0.6,0.4-0.8l0.1-0.1c1.8-0.2,3.7-0.5,5.5-0.7l0-0.2l0.5-1.4L93,47l0.1-0.1l0.4-0.5l0.2-0.2l0.2,0l0.4,0.2l0.2,0
	l0.2-0.3l0.3-0.9L95,45l0.2-0.2l0.3-1.7l0.2-0.3l0.3-0.2l0.7-0.4l-0.3,0.6l0.1,0.2l0.8,0l0.2-0.2l0.6-1.3l0.3-0.4l0.3-0.5l0.2-0.5
	l0-0.4l-0.2-0.3l-0.3,0l-0.3,0.1l-0.3-0.1l0.1-0.1l0.1-0.1l0.1-0.1v-0.2H98v-0.2l0.2-0.4l-0.3-0.3l-1-0.3l0.4-0.2l0.4,0.1l0.4,0.2
	l0.4,0.1l0.4-0.1l0-0.2l-0.4-0.7l0.3,0.1l0.2,0l0.1-0.2l0-0.2H98.6z M78.2,44.6l0-0.2l-0.1-0.3L78,43.9l-0.3-0.3l-0.5,0.1l-0.4,0.4
	l0.1,0.6l0.2,0.1l0.9,0.1L78.2,44.6z M99.7,36.6L99.7,36.6l0,0.9l-0.4,1.6L99.2,40l0.4-0.5l0.3-1l0.1-1.1l0-0.8v0L99.7,36.6z"/>
</svg>
