<?xml version="1.0" encoding="utf-8"?>
<!-- Generator: Adobe Illustrator 19.2.1, SVG Export Plug-In . SVG Version: 6.00 Build 0)  -->
<svg version="1.1" id="Layer_1" xmlns="http://www.w3.org/2000/svg" xmlns:xlink="http://www.w3.org/1999/xlink" x="0px" y="0px"
	 viewBox="0 0 100 37.7" style="enable-background:new 0 0 100 37.7;" xml:space="preserve">
<path d="M96.5,13l-0.1-0.3v-0.1l0.3,0l0.3,0l0-0.1l0-0.3l-0.1-0.2l-0.2-0.2l0-0.1l0.1-0.2l0.1-0.2l0.1-0.2l0-0.3l0-0.1l-0.2-0.3
	v-0.2l-0.5-0.9L95.9,9l-0.4-0.3l0,0.1l0,0.1l-0.1,0.1l-0.1,0.1l0.1,0l0.1,0l0.1,0.1l0.1,0.1l-0.2,0.1l-0.2,0l-0.2-0.1l-0.2-0.1
	l0.1,0.2L95,9.7l0.1,0.1l0.2,0.1l0,0.1l0,0.1l-0.1,0l-0.1,0L94.9,10l-0.2-0.3l-0.2-0.2l-0.1,0l-0.1,0.1L94,9.9L93.9,10v1.7l-0.1,0.5
	l-0.4,1.1h-0.1l-0.1-0.1l0-0.1l0-0.1l0,0L93,13.1l-0.3,0L92.4,13l-0.2-0.4h0.3l0.4,0.1l0.3,0.1l0.2-0.2l-0.1,0l-0.1-0.2l-0.1-0.2
	l0.1-0.1l0.1-0.1l-0.1-0.2l-0.1-0.2l-0.1-0.1h0.1l-0.2,0l-0.2,0l-0.2-0.1l-0.1-0.1l-0.1-0.1h0.1l0.3,0.1l0.3-0.1l0.1-0.4l-0.1-0.4
	l-0.3-0.2v-0.1l0.2,0l0.2-0.2l0.2-0.3l0.1-0.3l-0.2,0L93,9.6l0.1-0.5L93.2,9l0.2,0.1l0-0.2l-0.2-0.2L93,8.6l-0.3-0.1l-1.1,0.1
	l-1,0.3l-0.3,0.2l0.1,0.1l0.2,0.1l0.1,0.2l-0.3,0l-0.5-0.2l-0.2,0l-0.1,0.1l-0.1,0.1l-0.1,0l-0.1-0.1l0-0.1l0-0.1l0-0.1l0-0.1
	l-0.4-0.1l-0.6,0.1l-0.6,0.2l-0.4,0.2h-0.1l-0.3-0.1l-1.6,0V9.1L86,8.6l0.1-0.2l-0.2,0l0-0.1l0-0.2l0-0.2l-0.1-0.1l-0.1-0.1
	l-0.1-0.1l-0.1-0.4l-0.2-0.3l0-0.2l0-0.9l0-0.3l0.1-0.2L85.6,5l0.2-0.2l0.1-0.1l0-0.2l0-0.1l-0.2-0.2L85.6,4l0.2,0.1l0.2,0.1
	l0.1,0.2l-0.1,0.4L86,5l-0.2,0.2l-0.1,0.1L85.6,6l0.1,0.4L85.9,7l0.2,0.8L86.3,8h0.3l0.2-0.3l0.1,0.1l0.3,0.5l0.1,0.1l0.2,0l0.4,0
	l0.3-0.1l0.4-0.2l0.4-0.2l0.2-0.3l-0.1,0l0,0V7.4l0.2-0.1l1.1-0.2V7l-0.2,0l-0.3-0.1l-0.3-0.2l-0.1-0.1l-0.1-0.1l-0.4-0.2l-0.1-0.1
	l-0.1-0.1l-0.1-0.3l0.2,0.1L89,5.9l0.2,0.1L89.4,6l0.2,0.3l0.3,0.2L91.1,7l0.3,0.1L91.6,7V7l-0.2-0.2L91,6.2l-0.1-0.1l-0.1,0L90.7,6
	l-0.1-0.1l0-0.1l0-0.2l0.1,0l0.2,0.2L91.1,6l0.1,0l0.1,0.1l0.2,0.3l0.4,0.2l0.1,0l0.1,0l0.4,0V6.6h-0.1V6.5l0.4,0l0.1,0l0.2-0.2
	l0.1-0.1l-0.1,0L92.9,6l-0.1-0.3l-0.3-0.1l-0.1-0.2l-0.2-0.3l-0.2-0.2l-0.2-0.2l-0.3-0.1l-0.3-0.1l0-0.1l0.1-0.2l0.1-0.2L91.6,4
	l0.1,0v0.1l-0.1,0.1l-0.1,0.1l0.6,0.2l0.2,0.1l0.2,0.2L92.7,5l0.1,0.1L93,5.1l0.1,0.1l0.3,0.4l0.2,0.2l0.2,0.1l0.2,0l0.8,0.3V6.1
	L94.7,6l-0.2-0.1l-0.3-0.3l0.1-0.1l0-0.2l-0.1-0.3l-0.1-0.5l-0.1-0.1L94,4.3l-0.1-0.2l0.2,0l0.2,0.1l0.3,0.3l-0.2,0.3l0.1,0.1
	l0.2,0.1l0.2,0.1l0,0.1l0,0.2l0,0.1l0.1,0.1l0.3,0.2l0.1,0.2l0.1,0.2l0,0.1l0,0.1l-0.1,0.1l0,0.1l0.1,0.1l0.3,0.4l0.2,0.2L96,7.4
	l0.2-0.1l-0.1-0.2L96,6.8l-0.1-0.3l0-0.2l-0.6-1.6l0-0.2l-0.1-0.2l-0.4-0.6l-0.1-0.2l0.1-0.6l0-0.4l-0.1,0l-0.1,0.3L94.4,3l0,0
	l0,0.1l0,0.1l0.1,0.1l0.1,0.1l-0.2-0.2l-0.3-0.4L94,2.6l0.2-0.1l-0.2-0.2l-0.2-0.2l-0.2-0.3l-0.1-0.3l0-0.2L93.5,1V0.9l0,0
	C72.4,0.6,51.3,0.4,30.2,0.2l-0.1,0l0,0L30,0l-0.5,0.9l-0.1,0.3l0,0.1l0.2,0.3l0,0.1l-0.2,0.5l-0.3,0.6l0,0.1l0,0.1l0,0.1l0.1,0.2
	l0.2,0.2l0,0.1l0,0.1l0,0l-0.1,0l-0.3,0l-0.6-0.2h-0.1l-0.1,0l-0.9,0.6l-0.3,0.3l0,0.1l-1.1,2.1l-0.1,0.1l-0.1,0.1l-0.1,0.1L25.4,7
	L25.3,7l-0.1,0h-0.1l-0.1,0l-0.2,0l-0.1,0l-0.1,0l0,0l0-0.1l0-0.1l0-0.1l0-0.1l0-0.1l0-0.1l0,0l0,0l-0.1,0l-0.1,0l-0.2,0l-0.1,0
	l-0.1,0L24,6.3l-0.1,0l0,0l-0.1,0l-0.1,0.1l-0.4,0.3l-0.1,0l-0.2,0l-0.1,0l-0.3,0.1l-0.4,0.1l-0.1,0L22,7l-0.2,0.2l-0.4,0.4
	l-0.1,0.2l-0.1,0.3L21,8.2l-0.2,0.3l-0.1,0.1l-0.1,0.1l-0.1,0l-0.1,0L20.1,9L20,9l-0.1,0h-0.1l-0.1,0l-0.1,0l-0.1,0l0-0.1l0-0.1
	l0-0.1l-0.1-0.2l0-0.1l0-0.1l0-0.1l0.1-0.2l0-0.1v0l0,0l-0.2-0.3l0,0l-0.1,0l-0.1,0L18.6,8l-0.3,0.1l-0.8,0.4l0,0l0,0l0,0.1l0,0.2
	l0,0.1l0,0.1l-0.1,0.1l-0.1,0.1l0,0.1l-0.1,0.1l-0.1,0l-0.1,0l-0.1,0l-0.1-0.1l-0.2-0.1l-0.1-0.1l-0.1,0h-0.1l-0.2,0l-0.1,0L16,9.2
	l0,0.1l0,0.1l0,0.1l0,0.1l0,0.1l0,0.1l0,0.1L16,10V10l0,0.1l-0.1,0.2l0,0.1l0,0.1l0,0.1l-0.1,0.1l-0.3,0.4l-0.3,0.3L15,11.5l-0.1,0
	l-0.2,0l-0.5,0l-0.1,0l-0.1,0l-0.1,0l-0.6,0.3l-0.4,0.1l-0.1,0l-0.1,0l-0.3,0.3l-0.1,0.1l-0.3,0.1l-0.1,0l-0.1,0.1l0,0.1l-0.2,0.2
	l-0.2,0.3l-0.1,0l-0.1,0l-0.1,0l-0.1,0l-0.1,0L11,13.1l-0.2,0.2l-0.1,0.1l-0.1,0.1L10,13.8l-0.1,0.1L9.8,14l-0.1,0.1l-0.3,0.2
	l-0.1,0.1l-0.1,0l-0.7,0.1l-0.1,0l-0.1,0l-0.1,0l-0.1,0l0,0l-0.1,0l-0.1,0l-0.2,0.1l-0.1,0H7.6l-0.1,0l-0.1,0l-0.1,0l-0.1,0l-0.1,0
	l0,0l0,0l-0.4,0l-0.1,0l-0.2,0.1l-0.2,0.1l-0.3,0.2l-0.2,0.1L5.6,15l-0.1,0l-0.4,0.1L5,15.2l-0.1,0.1l-0.1,0.1l-0.2,0.4l-0.1,0.1
	l-0.1,0.1l-0.1,0L4,16l-0.1,0.1l-0.1,0.1l-0.3,0.3l0,0.1l0,0.1l0,0.1l0,0l0.1,0.2l0,0.1l0,0.1l0,0.1l0,0.1l-0.2,0.3l0,0.1l0,0.1
	l0,0.1l0,0.4l-0.1,0.1L3,18.4l-0.2,0.2l-0.1,0.1l-0.1,0.1l0,0l-0.3,0l-0.6,0.1l-0.2,0l-0.1,0l-0.1,0l-0.1,0l-0.1-0.1l-0.1,0l-0.1,0
	l-0.2,0.1l-0.1,0l-0.1,0.1L0.5,19l-0.1,0.2l-0.1,0.1l0,0.1l0,0.1c-0.1,1-0.2,2-0.3,3c4.6-0.1,9.2-0.1,13.8-0.2l3.3-1.1l0.4-0.1
	l0,0.1l0,0.1l0.1,0l0.1,0l0.1-0.1l0.1-0.1l0.3-0.1l0.1-0.1l0.1-0.1l0-0.2l0-0.1l0.1-0.1l0.1,0l0.1,0l0.1,0l0.1,0l0.4-0.2l0.6-0.2
	l0.1,0l0.4,0l0.1,0l0.1,0l0.1-0.1l0.1-0.1l0.1,0l0.4,0l0.1,0l0.1-0.1l0.1-0.2l0.1-0.1l0.1-0.1l0.2-0.1l0.1,0l0.1,0l0,0l0,0l0.1,0.1
	l0,0l0,0l0,0l0.9-0.1c4.6,0.2,9.1,0.5,13.7,0.7l0.1,0l0.1,0l0,0l0,0l0,0.1l0,0.1l0,0.1l0,0.1l0,0.1l0,0.1L36.9,21l0,0.1l0,0l0,0.1
	l0,0.1l0,0.1l0,0.1l0,0.1l0.1,0.1l0.1,0l0.1,0l0.9-0.7l0.1,0l0,0l0,0l0,0c0.5,0.7,1,1.3,1.5,2l0,0.1l0,0.1l0,1.4l0,0.1l0,0.1
	l0.1,0.1l0.1,0l0.4,0l0.1,0c3.7,0.1,7.3,0.2,11,0.2l0.1,0l0.4,0l0.3,0.1l0.2,0.1c4,4.1,8.1,8.3,12.2,12.4l0.3-0.1v0.1l-0.1,0
	L65,37.7l1-0.4l0.7-0.2l0.3-0.2l0.1-0.4h0.1l0.1,0.3l0,0.1L67.1,37l0.4,0.1l0.9-0.2l0.3,0.1l0.1,0.1l0.6,0l0.2,0l1,0.3l0.2,0
	l0.2-0.1l0.1-0.1l0.4-0.7l0.2-0.5l0-0.2l0-0.5l0-0.2l0.1-0.2l-0.1-0.3l-0.1-1l0-0.4h0.1l0.2,0.6l0.2,0.5l-0.1,0.4l0.1,1.1L72,36.3
	v0.1l0,0.1l0,0.1l-0.1,0.2l0.3-0.4l0.2-0.7l0.2-1.5l0.1-0.2l0.3-0.5l0.1-0.4l0.2-0.2l0.4-0.3l0.6-0.9l0.7-0.8l1.5-1.3l0.9-0.5
	l0.6-0.2l0.2-0.1l0.1-0.1l0,0l-0.1,0v-0.1l0.1-0.1l-0.1-0.2L78,28.1l-0.2,0L77.7,28l-0.1-0.1l-0.1-0.2l0-0.1l0.1-0.1l0.1-0.1l0.1,0
	l0,0.1l0.1,0l0.2,0l0.2-0.2l0-0.3l-0.1-0.2l-0.1-0.2l-0.1-0.1l-0.1,0.1l-0.1-0.2l-0.1-0.7l0.1,0.2l0.1,0l0.1,0l0.1,0l0.1,0.1
	l0.1,0.1l0,0.1l-0.2,0v0.1l0.2,0.1l0.4,0.6l0.1,0.2l-0.1,0.3l-0.5,0.4L78,27.9l0.4,0.1l0.1,0.1l0,0l0.2,0.2l0.2,0l0.3-0.2l0.1,0
	l0.3-0.2l0.6-0.8l0.3-0.2l0.1,0l-0.1-0.2l0-0.1l0.1,0l0.1,0.1l0.1,0.1l0.1,0l0.1-0.1l0.1-0.1l0.1-0.2l0-0.2L81.1,26l-0.1-0.2l0-0.2
	l0.2,0v0.1l0.1,0.3l0.2,0.4l-0.2,0.1v0.1l0.1,0.1l0.1-0.1l0.1-0.1l1.6-0.5l0.4-0.2l2.2,0.2l-0.1-0.2l-0.2-0.4l-0.1,0.1l-0.1,0.1
	l-0.1,0l-0.2,0l0.2-0.2l0.2-0.2l0.3-0.1l0.3-0.1l0.2,0.1l0,0.3l0,0.4l0.1,0.3l0.3,0.2l0.1-0.3l0.1-1.2l0.1,0l0.2,0.2l0.2,0.2
	l-0.2,0.2l0.1,0.2l0.2,0.2l0.2,0.1l0.3,0l0.1,0l0.1-0.1l0.1-0.1l0-0.1l0-0.1v-0.1l0.1-0.1l0.1-0.1l0.1,0l0.1-0.1l0.4-0.5l0.2-0.2
	l0.1-0.1l0.1-0.1l0-0.1l0-0.2l0-0.1h0.1l0,0.1l0,0.1l0,0.1l0.4-0.2l0.1-0.1l0.1-0.2l0-0.1l-0.1-0.1l0-0.1l0.1-0.2l0.1,0l0.1,0l0.2,0
	l0.1-0.1l0.2-0.2l0.1-0.1v-0.1l-0.3-0.2l-0.1-0.3L90.2,22l-0.3-0.1l0.1,0.2l0.2,0.3l0,0.2l-0.1,0l-0.2,0l-0.2,0.1L89.4,23l-0.1,0
	l-0.5,0.2l-0.2,0l-0.1,0l-0.1,0l0-0.1l0-0.1l0.1-0.1l0.1,0l0.1,0l0.3-0.2l0.1-0.1L89,22.3L88.8,22l0-0.1l0.1-0.2l0-0.1l0-0.1
	l-0.1-0.2l0-0.1l-0.1,0l-0.1,0.2l-0.1,0.3l-0.1,0.2l0,0.2l0,0.2l0,0.2l-0.1,0.2l-0.2-0.2L88,22.3l-0.2,0h-0.2l-0.2,0.1l0,0.2
	l0.2,0.4l0.1,0.3l-0.2-0.1l-0.3-0.2l-0.2-0.1l0-0.1L87,22.7l-0.1-0.1l-0.1-0.1l-0.1,0l-0.1,0l-0.2,0.2l-0.2,0.2L86,23l-0.2,0.2
	l-0.3,0.1l-0.1,0.1l-0.1,0l-0.1,0l0-0.1l-0.1-0.1L84.7,23l-0.5-0.2l-0.5-0.1l-0.5-0.2L82.8,22l-0.3-0.6l-0.2-0.3l-0.2-0.1l0-0.1
	l-0.5-0.8l0.4,0.2l0.5,0.8l0.4,0.2l0.1,0.1l0.5,0.6l0.3,0.3l0.4,0.2l0.4,0.1l0.5,0l0.4-0.2l0.2-0.3l0.2-0.2l0.5-0.3l0.4-0.3L86.9,21
	l0.4-0.1l0.2-0.3l0.1-0.3l-0.2-0.4l-0.2,0.1V20l0.1,0l0.1,0l0.1,0l-0.2,0.1l-0.1,0L87,20.1L86.8,20l-0.5,0l-0.1-0.1l0.1-0.1l0.2-0.1
	l0.2,0l0.2,0l0.1,0l0.1-0.1l0.1-0.1l0.2,0l0.3,0.1l0.2,0l0.1-0.1l-0.1-0.1l-0.1-0.1l-0.3-0.1V19l0.6,0.1l0.3,0l0.1-0.2l0-0.1
	l0.1-0.2l0-0.1l-0.2-0.2l-0.1-0.1l0-0.1l-0.3,0l-1-0.3L86,17.4L85.3,17l-0.7-0.2l-0.2-0.1l-0.3-0.3l-0.5-0.3l-0.5-0.1l-0.4,0.2
	l-0.1-0.4l-0.1-0.2l-0.2-0.1l-0.1-0.1l-0.1-0.2L82,14.9l0.4,0.4l0.2,0.1l0.5,0.1l0.5,0.3L84,16l0.6,0.1l0.2,0.1l0.2,0.2l0.3,0.1
	l0.6-0.2l0.3,0.1l0.1-0.1l0.1-0.1l0.1,0l0.1,0l0,0.3l0.2,0.2l0.3,0.1l0.2-0.1l0-0.1l-0.1-0.1l-0.1-0.1l-0.1,0l0-0.1l0-0.1l0,0l0.1,0
	v-0.1l-0.1,0L87,16.1l-0.2-0.2l0-0.1l0.1-0.3l-0.1-0.1l-0.1-0.1l-0.1-0.1l-0.2,0l0.5-0.3l0.2-0.1l0.3,0l0.5,0.1l0.3,0l0.3-0.1
	l-0.2,0.4l-0.2,0.1l-0.6-0.1l-0.3,0.1l-0.1,0.2l0.1,0.2l0.2,0.2v0.1L87.5,16l0.2,0.1l0.5,0.2l0,0.1l0,0.1l-0.1,0l-0.1,0l0.1,0.2
	l0.2,0.1l0.4,0.2l0-0.1l-0.1-0.1l-0.1-0.1l-0.1,0l0.1-0.1l0.1-0.1l0.1,0l0.1,0.1l0.2-0.5L89,16l0.1-0.1l0.2,0.1l0.1,0.3l0,0.4l0,0.2
	l0.1,0.1v0.1h-0.5l0.1,0.1l0.1,0l0.1,0l0.1,0l0.2,0.1l0.1,0.1l0.2-0.1l0.1-0.2l0-0.2L89.7,17l0-0.1l0-0.2l0.1-0.1l0.3,0.1l0.1,0.1
	l0.2,0.4l0.3,0.2l0.1,0l0.1-0.2l0-0.1l0.1,0l0.1,0l0.1,0.3l0.2,0.1l0.8,0l0.1-0.1l0.1-0.2l0.1-0.1l0.4-0.1l0.2,0v-0.1L93,16.7
	l0.1-0.3l0.2-0.2l0.2,0.1l-0.1,0.1l0.1,0.1l0.1,0l0-0.1l0-0.2l0.1-0.1l0.1-0.1l0.1-0.1l-0.1-0.2l0.3-0.1l0.1,0l0.1-0.1l0-0.1l0-0.1
	l0-0.1l0-0.1l0-0.1l0.2,0l0.1,0l0.6-0.7l0-0.1l0-0.2l0-0.2l0.1-0.2l0.1,0.3l0.1,0.3l0.2,0.1l0.3-0.1l0,0l0,0l0,0l0,0.1l-0.1,0
	l-0.1,0.1v0.1l0.3,0l0.1,0l0.1-0.1l0-0.1l0-0.1l0-0.1l0.1,0l0.1,0l0.1,0l0.1-0.1l0.2-0.3l0-0.1L96.5,13z M97.6,9.5L97.6,9.5
	l-0.1-0.1l-0.2-0.1l-0.1-0.1l-0.1,0l-0.1,0l-0.1,0l-0.1,0.1l0,0.1L97,9.5L97,9.5l0.1,0.2l0.3,0.4l0.1,0.2l0,0.3l0.1,0.2l0.2,0.1
	l0.2,0l0-0.1l0-0.1l0.1-0.3l-0.4-0.5l-0.1-0.2L97.6,9.5z M95.1,20.1l-0.6,0.4l-0.3,0.1l-0.3-0.1l-0.1,0.4l-0.1,0.2l-0.1,0.1l1.2-0.8
	l1-0.4l0.2-0.2l0.2-0.1l0.1-0.1l0.1-0.1l-0.3,0.2L95.1,20.1z M95.3,1.4l0.1,0.5l0.2,0.3l0,0.2l0.2,0.3l0,0.2l0.1,0.9l0.1,0.4l0,0
	l0,0l0,0l0,0.1l0.2,0.2l0.3,0.6l0.1,0.5l0.2,0.4l0.1,0.4l0,0.3V7l0.1,0.2l0.1,0.3l0.1,0.2l0.2,0.1l0.1-0.1l0.1,0.1L97.4,8l0.1,0.2
	l-0.3,0.1l-0.1,0L97,8.1l0,0.2l0.1,0.2l0.2,0.1l0.1-0.1h0.1l0.8,1.1l0.2,0.4l0,0.5l0.1,0.3l0.2,0.2l0,0.1l0,0.1l0,0.1l0.1,0.1
	l0.2,0.1l0.1,0.1l-0.3-0.8l-0.1-0.6L97,6.7l-0.5-1.4l-0.3-0.7l-0.1-0.2l0-0.3l-0.1-0.3l-0.2-0.6l-0.5-2.3l0,0c-0.1,0-0.2,0-0.3,0
	l0,0l0,0.1L95.3,1.4z M93,21.2L93,21.2l-0.1,0.2l-0.1,0.1l-0.1,0.1l0,0.1l-0.1,0.2l-0.3,0.4l-0.1,0.1h0.1l0.2-0.3l0.8-0.6l0,0l0,0
	l0,0l0-0.1l-0.3-0.1L93,21.2z M94.1,1.1l0,0.2l0,0.2l0.2,0.1h0.5l0.1,0V1.5l0-0.1l0-0.1l0-0.4l0,0c-0.1,0-0.3,0-0.4,0l-0.1,0.1
	l-0.1,0l-0.1-0.1l-0.5,0l0.1,0.1L94.1,1.1z M100,13.7L99.8,13c0-0.2,0-0.4-0.1-0.6L99.6,12l-0.1-0.3l-0.2-0.2l-0.1,0.1l0.1,0.3
	l0.2,0.5l0,0.3l0.3,1l0.1,0.6l0,0.3l0,0.2L99.6,15l0,0.2l0,0.2l0.1,0.3l0,0.1l0,0.3l-0.1,0.5l0,0.5l-0.1,0.7l-0.1,0.2l0,0.4L99,18.5
	l-0.8,0.3l-0.7,0.4l-0.1,0l0,0l0,0l0,0l-0.1,0l0,0.1l0,0.1l0,0l-0.1,0.1l0,0.1l0,0l-0.1,0l-0.1,0.1l-0.1,0.1l0,0.1l0.1,0l0.1,0
	l0.2-0.1l0.1,0l0.2,0l0.4-0.2l0.2,0l0.4-0.2l0.4,0l0.1,0l0.2-0.1l0.1-0.2l0.3-1l0.2-2.3l0.2-1.1L100,13.7z M91.2,23.2L91,23.3
	l-0.1,0.1l-0.1,0.1l-0.5,0.3l-1.2,1.2l-1.3,2.1l-0.2,0.4l0.1,0.3l0.1-0.4l1.4-2.3l0.6-0.7l0.2-0.1l0.3-0.1l0.6-0.6l0.3-0.2l0.2-0.4
	l-0.2,0.1L91.2,23.2z M78.3,28.8L77.9,29l-0.2,0.1l-0.2,0.1l-1.5,1l-0.4,0.4L75.4,31l0.2-0.2l1.2-1l0.2-0.1l0.4-0.1l0.9-0.5l0.3-0.3
	l0,0l0,0l0,0l0-0.1L78.3,28.8z M83.7,26.4l-1.8,0.3l-0.3,0.1l-0.2,0.2l3.1-0.7l0.3,0l1.4,0.1v-0.1l-0.6-0.2L83.7,26.4z M87.7,27
	l-0.1-0.2l-0.1-0.1l-0.8-0.3h-0.2v0.1l0.1,0.1l0.6,0.2l0.4,0.3l0.1,0.1l0.2-0.1L87.7,27z"/>
</svg>
