<svg id="Layer_1" data-name="Layer 1" xmlns="http://www.w3.org/2000/svg" viewBox="0 0 101 52.39"><defs><style>.cls-1{fill:#fff;stroke:#4a6b8a;stroke-miterlimit:10;}</style></defs><title>noun_19618_cc-white</title><path class="cls-1" d="M78.2,48.6L78,48.3l-0.3-.1-0.2.1-0.1.4L77.5,49l0.6,0.3,0.2,0.3-0.3.1H77.3l-0.1.1L77.3,50l0.6,0.3,0.2,0.3,0.2-.5,0.2-.6V48.9Zm20.2-7-0.9,2.1L97,44.8l-0.3.7-0.1.8-0.1.3-0.7,1-0.5.9h0.4l0.1-.3,0.8-.9L97.5,45l0.4-1.7,0.8-1.5,0.2-.8H98.8Zm0.2-5H85.1L85,35.3C84.4,23.5,83.9,11.8,83.3,0H0.2L0,14.9V15H0.1l0.2-.1,0.3-.2,2.5-2.3,0.2-.1,0.9-.2L4.4,12H4.5l0.3-.6L5,11.1l0.3-.3,0.6-.5,1-.6H7l0.1-.1,0.3-.4,0.4-.3,0.1-.1L8,8.7l0.1-.1,0.1-.1,0.3-.7,0.1-.1,0.1-.1,0.1-.1L9.5,7H9.9l0.4,0.1,0.4,0.2,0.4,0.4,0.2,0.1h0.4L12,7.7l0.1-.1,0.1-.1,0.2-.4,1.4-1.4L14,5.4,14.2,5h0.1l0.1-.1,0.1-.1,0.1-.1h0.1l0.4-.1,0.1-.1,0.1-.1V4.3l-0.1-.2V3.9l0.1-.2,0.1-.1,0.3-.5,0.1-.2,0.1-.2L16,2.6V2.5h0.2l0.2,0.1,0.1,0.1L16.6,3l0.3,0.2V3.4H16.8l-0.2.1-0.1.1V4.1h0l0.1,0.2h0l0.1,0.1,0.8,0.4,0.4,0.3L18,5l0.1,0.1,0.5,0.2,1.8,0.3,0.1-.1,0.8-.2,1.6,0.2L23.6,5l0.1-.3-0.1-.1-0.4-.2L23.3,4l0.4-.1h0.4l0.3-.1-0.6-.9L24,2.7h0.2l0.4,0.1h0.2l0.6-.3,0.4-.1,0.9,0.2h0.4l0.2-.1L27.7,2,28,1.6l0.7-.8,0.2-.1,0.2-.1,0.3-.1,1.2,0.1,1,0.7L33.2,3l0.4,0.3,0.5,0.2h0.5L35,3.3l0.2-.1,0.6,0.2L36,3.3l0.1-.2h0.3l0.3,0.1,0.2,0.1,0.3,0.4-0.1.4-0.4.3-0.6.1,0.1,0.3L36.6,6h0.1l0.1-.3,0.1-.3,0.2-.2,0.2,0.1,0.1,0.3-0.1.2V6.2l0.3,0.3h0.3l0.4-.1h0.4V6.6l-0.3.1-0.1.2V7.2l0.1,0.4L37.8,8l0.3,0.3,1,0.4,0.2,0.5-0.1.5-0.2.5v0.5l0.3,0.6h0l0.4,0.2H41l0.4,0.1,1,0.4,1,0.3,0.2,0.2L44,13.2l0.4,0.3,0.5,0.1,0.4,0.2,0.2,0.5-0.1.6-0.3.4-0.5.7-0.2.5,0.1,0.4,0.3,0.4,0.3,0.3,0.8,0.8,0.5,0.3,2,0.2,0.7,0.2,0.7,0.4L50.3,20l0.1,0.4,0.1,0.5,0.1,0.4,0.3,0.2,0.3,0.1L52,21.9,52.7,22,53,22.2l0.3,0.3L55,20.6l2.5,3.6-2,2.4v0.5l0.4,0.7-0.1.2-0.1.2-0.1.1-0.1.1L55.7,29l-0.3.3-0.9.3-0.3.2-0.2.1-0.2.2-0.1.3-0.1.5-0.2.5-0.1.5-0.1.2L52.9,32H52.3l-0.2.2H52l-0.1.1-0.1.2-0.1.3V33h0.1l0.2-.1,0.2,0.2-0.6.3-0.2.1-0.5.2-0.3.6-0.1.6-0.2.3-0.2.3v0.8l0.1,0.9,0.1,0.5,0.2,0.5,0.4,0.6,0.5,0.4,0.5-.2,0.2-.2,0.5-.2,0.3-.3,0.5-1-0.2-.4-0.1-.1L53,36.6l0.3-.2,0.3-.2v0.1h0l0.1,0.1v0.2l-0.1.2v0.3l0.2,0.3L54,37.6l0.3-.1,0.3-.2,0.4-.5,0.1-.2,0.1-.2,0.1-.3V35.8l0.4,0.4L56,37l0.6,2.1,0.3,0.5,1.5,1.7L59,41.7h0.5l0.1-.7-0.2-.8-0.2-.7-0.6-1.2,0.7,0.5,0.5,0.6,0.3,0.8,0.1,1.1,0.1,0.3L60.5,42l0.4,0.6,0.3,0.3L61.5,43l2.1-.3,0.8,0.1L65,43.2l0.3,0.3,0.3,0.2L65.9,44l0.3,0.5,0.1,0.4,0.2,0.7v0.2L66.8,46l0.2-.2,0.1-.7,0.5,0.6,0.3,0.2,0.2-.4,0.1-.2,0.1-.2,0.1-.3V44.6l-0.1-.4V43.9l0.5,0.5L69,45.3V46l0.3,0.4,0.6,0.2,1.6,1.5V47.7l-0.1-.3-0.2-.2L71,47V46.6l0.2-.5,0.1-.6L71.2,45l-0.7-1.1-0.6-.5-0.2-.2-0.1-.5,0.1-.4,0.2-.4,0.1-.5L69.8,41H69.3l-0.6.1H68.2l-0.5-.3-0.4-.5L67,39.7V39.1l-0.2-.2-1.5-.7-0.8-.7L64,36.7l-0.4-1-0.1-1.1V34.4l-0.1-.2,0.2-.2-0.1-.4L63.2,33l-0.1-2.1V30.4l0.1-.2,0.2,0.7,0.7,4.4,0.1,0.2,0.2,0.2,1.5,2L66.3,38H67l0.2,0.1,0.4,0.2,0.2,0.2v0.4l0.1,0.3,0.3,0.4,0.3,0.2h0.8l0.5-.2L70,39l-0.2-.6-0.2-.5-0.6-1L67.4,35,67,33.9V33.3l0.2-1.8L67.1,31l-0.2-.5-0.1-.6,0.2-.6-0.6-.7L66.1,28V27.4l0.2-.4,0.8-.5,0.3-.4,0.1-.6H67.3l-0.7.4-0.2-.2,0.3-.9-0.2-.2-0.1-.2V24.2h0.7l0.2,0.1,0.4-.4-0.2-.4L66.7,23l-0.2-.3-0.2-.4V22l0.4-.1,0.4,0.3,0.8,0.9,0.4,0.2,0.2-.3-0.3-.7-0.9-1.5-0.5-.6L66.5,20,66,19.8l-0.2-.2-0.2-.3V19l0.1-.2,0.3-.1,0.2,0.1,0.2,0.3,0.3,0.6L68,21l0.2-.1,0.1-.2,0.2-.1H69l0.4-.1,0.1-.3-0.3-.5-0.4-.3-1.2-.6-0.5-.1-0.2-.1-0.1-.2-0.1-.3,0.1-.2L67,18l0.7,0.6,0.3-.2,0.3,0.1,0.2,0.2L68.6,19H69l0.1-.6-0.2-.6L68.6,17l-0.3-1H68l-0.5.3-0.2-.2L67,15.6l-0.1-.1-0.1-.2L66.6,15l-0.2-.3-0.7-.2-0.1-.2L65.5,14l-0.2-.3H65.1l-0.4-.1-0.3-.2,0.1-.1h0.6l0.2-.1,0.2-.2,0.3,0.2,1.1,0.5L67.2,14l0.3,0.3,0.2,0.2,0.2-.1L68,14.6l0.2-.2h0.2l0.2,0.1,0.2,0.2,0.9-.6V13.9L69,14l-0.6-.5L68,12.8,67.6,12l0.7,0.2,0.2,0.1L68.9,13l0.2,0.3,0.3,0.2,0.2-.3V13l-0.7-1-0.2-.4,0.1-.2L70,11.7l0.1-.1-0.2-.4,0.3-.2h0.2l0.2-.1,0.2-.3H70.7V10.1L70.4,10l-0.6-.1-0.4-.3,1.7-.4,0.3,0.1,0.4,1.3L72,11.9l0.7-.9,0.2-.1V10.7l-0.2-.3L72.5,10l0.3-2.2,0.1-.1L73,7.4l0.2-.2h0.2l0.2,0.2V7.6l-0.1.6L73.3,9.4,73.4,10l0.4,0.4,0.6-.5L75.7,9l1.1-1L77,7.7V7.3l-0.2-.1L76,6.9l-0.2-.3L76.4,5l0.2-.2,0.2-.1h1.8L79,4.5l0.4-.7,0.3-.3L80,3.4,79.7,4.5,79.5,5l-0.2.4-0.6.8-0.2.5,0.1,0.5L79,6.9l1.6-1.3L81,5.1l0.4-.5,0.4-.4L82.3,4l-0.2.7-0.3.7L81.4,6l-0.6.3L81,6.8,81.5,7l0.7,0.4V7.6l-0.6-.1-1-.3H80l-0.4.2-0.5.4-0.9,1-0.1.5,0.6,0.2h2.6l0.6,0.2,0.3,0.4H80.4L77.9,10l-2,.2-0.1.1-0.2.6-0.1.2-0.2.1-0.5.1-0.2.2-0.1.5v0.6l-0.1.3L73.3,15l-0.4,1-0.1.2-0.1.3v0.3L73.2,17l0.2,0.3,0.1,0.3v0.2l-0.1,1.3v0.5l0.2,0.3,0.4-.4,0.2-1.1,0.3-1.1,0.8-.4v0.2l-0.3.2,0.5,0.2,0.5-.2,0.5-.4,0.5-.2-0.3.5-1,1-0.4.7,0.2,0.2-0.3.1-0.5.1,0.1,0.3,0.1,0.2L75,20l0.2,0.1-0.1.6-0.4.3-0.5.2-0.5.1-0.6-.1L72.7,21l-0.6-.6-0.2-.2L71.6,20l-0.2.1-0.2.7-0.3.6-0.1.2-0.1.7-0.4,2.2V25h0.3l0.5-.3,0.2-.3-0.1-.2L71,23.9V23.6l0.1-.3,0.2-.2,0.2-.1,0.7-.1h0.1l0.2-.1V22.7l0.2-.2,0.2-.2H73l0.2-.5,0.4,0.1,0.7,0.6-0.1.5v0.5l0.1,0.4,0.3,0.2,0.1-.2,0.2-.7L75,23h0.3v0.3l-0.3.6L75.1,24,76,24.4l-0.5.3L75,25l-0.5.4-0.1.8,0.3,0.7L75.2,27l0.5-.3,0.3-.5,0.1,0.5-0.2.5-0.3.3-0.3.1-0.4-.1-0.4-.2L74.1,27l-0.3-.3L73.6,26H73.4l-0.2-.1L73,25.5l-0.3-.2-0.4.2-0.7.5v0.2l-0.1.3L71,28.2l-0.2.5-0.1.4-0.1.7L70.7,30H71l0.3-.2,0.2-.2-0.1-.4V28.5l0.1-.7,0.2-.4,0.3-.3v0.2l-0.2,1.2L72,28.8l0.4-.4,0.7-1,0.4,0.2-0.1.5-0.1.9,0.3,0.2,0.2,0.7L74,30l0.3-.1,0.1-.3,0.1-.4,0.2-.3,0.1,0.3v0.3l-0.1.2-0.1.2,0.2,0.4h0.4l0.5-.1h0.5v0.2l-0.3.1-0.6.3L75,30.7v0.2l0.4,0.2,0.3-.1,0.3-.2,0.3-.1-0.1.6,0.4,0.5,0.6,0.4,0.5,0.1,0.5-.2,0.3-.4,0.5-1h0.1l0.1,0.1,0.1,0.1-0.2.4-0.1.9-0.3.5-0.3.2-0.1.1-0.7.1-2.3-.9-0.4.1-0.2-.2-0.2-.2,0.1-.1,0.3-.3H74.6l-0.6.3-0.3.1H73.3l-1-.2,0.2,0.4,0.1,0.1,0.1,0.1v0.2l-0.5.6-0.2.4,0.3,0.2H73l0.3-.1,0.2-.2,0.1-.2V33l0.1-.1h0.6L74.4,33l0.1,0.1,0.1,0.3-0.3.4,0.1,0.3-0.4.2-0.5.2-0.5.2-0.2.5-0.1.7-0.2.4-0.2-.1-0.1-.7L72,35.3l-0.4-.1-0.3.2V36l0.1,0.1,0.2,0.2,0.2,0.2,0.1,0.6L72,37.4l0.2,0.3,0.1,0.2L73,39l0.4,0.7,0.1,0.8h0.1l0.1-.6-0.3-1.3,0.2-.2L74,38.7l1.3,1.7,0.2,0.5,0.2,0.2,0.6,0.2,0.2,0.2,0.7,1.3L77.4,43l0.2-.3,0.3-.7V41.2l-0.2-.3-0.2-.1,0.4-.7,0.6-.8,0.6-.3,0.2,0.6V40l-0.6.3-0.1.4L78.7,41l0.2,0.2,0.2,0.2,0.1,0.2v0.8l0.1,0.2,0.2-.3,0.6-1.7,0.1-.2,1.2-1.3,0.1-.3,0.1-.3,0.1-.3,0.2-.1h0.3l0.1,0.1-0.3.1-0.1.6-0.2.4L81,40.5l-0.3.6-0.1.6,0.2,0.6,0.4,0.2,1,0.1,0.4,0.2-0.8.4-0.9.3-0.8.5-0.3,1.1v0.6l0.1,0.2L80,46l0.2-.1V45.4l0.1-.2,0.5-.1,1,0.1,0.5-.2,0.3,0.1H83l0.3,0.1,0.1,0.3-0.2.2-0.7.1-0.2.1,0.1,0.2-0.1.3-0.2.2-0.1.1-0.2.1V47l0.1,0.1h0v0.1l0.3-.2,0.3-.1h0.6l0.3-.1,0.2-.3,0.2-.2,0.3,0.1-0.1.5-1,1-0.2.3-0.1.1-0.6.1-0.1.2-0.3.4-0.5.8-0.2.1h0.2V50h0.2l0.1-.2,0.1-.1,0.2-.1H82l-0.1.4-0.2.2-0.2.2-0.1.2v0.2l0.1,0.1L81.6,51v0.2l0.2,0.1,0.4-.3,0.7-.6,0.5-.4,0.5-.1,2,0.2,0.4,0.1,0.2,0.1a2,2,0,0,1,.4-0.8l0.1-.1c1.8-.2,3.7-0.5,5.5-0.7V48.5L93,47.1V47l0.1-.1,0.4-.5,0.2-.2h0.2l0.4,0.2h0.2l0.2-.3,0.3-.9V45l0.2-.2,0.3-1.7,0.2-.3,0.3-.2,0.7-.4-0.3.6L96.5,43h0.8l0.2-.2,0.6-1.3,0.3-.4,0.3-.5,0.2-.5V39.7l-0.2-.3H98.4l-0.3.1-0.3-.1,0.1-.1,0.1-.1,0.1-.1V38.9H98V38.7l0.2-.4L97.9,38l-1-.3,0.4-.2,0.4,0.1,0.4,0.2,0.4,0.1,0.4-.1V37.6l-0.4-.7L98.8,37H99l0.1-.2V36.6H98.6Zm-20.4,8V44.4l-0.1-.3L78,43.9l-0.3-.3-0.5.1-0.4.4,0.1,0.6,0.2,0.1L78,44.9Zm21.5-8h0v0.9l-0.4,1.6-0.1.9,0.4-.5,0.3-1,0.1-1.1V36.6H99.7Z" transform="translate(0.5 0.5)"/></svg>