<svg id="Layer_1" data-name="Layer 1" xmlns="http://www.w3.org/2000/svg" viewBox="0 0 101.16 39.34"><defs><style>.cls-1{fill:#fff;stroke:#4a6b8a;stroke-miterlimit:10;}</style></defs><title>noun_19625_cc-white</title><path class="cls-1" d="M96.5,13l-0.1-.3V12.6H97V12.2L96.9,12l-0.2-.2V11.7l0.1-.2,0.1-.2,0.1-.2V10.7l-0.2-.3V10.2l-0.5-.9L95.9,9l-0.4-.3V8.9L95.4,9l-0.1.1h0.2l0.1,0.1,0.1,0.1-0.2.1H95.3l-0.2-.1-0.2-.1L95,9.4V9.7l0.1,0.1,0.2,0.1v0.2H95.1L94.9,10l-0.2-.3-0.2-.2H94.4l-0.1.1L94,9.9l-0.1.1v1.7l-0.1.5-0.4,1.1H93.3l-0.1-.1V13h0l-0.2.1H92.7L92.4,13l-0.2-.4h0.3l0.4,0.1,0.3,0.1,0.2-.2H93.3l-0.1-.2-0.1-.2,0.1-.1,0.1-.1-0.1-.2-0.1-.2L93,11.5H92.7l-0.2-.1-0.1-.1-0.1-.1h0.1l0.3,0.1,0.3-.1,0.1-.4L93,10.4l-0.3-.2V10.1h0.2l0.2-.2,0.2-.3,0.1-.3H93.2L93,9.6l0.1-.5L93.2,9l0.2,0.1V8.9l-0.2-.2L93,8.6l-0.3-.1-1.1.1-1,.3-0.3.2,0.1,0.1,0.2,0.1,0.1,0.2H90.4l-0.5-.2H89.7l-0.1.1-0.1.1H89.4l-0.1-.1V9l-0.4-.1L88.3,9l-0.6.2-0.4.2H87.2l-0.3-.1H85.3V9.1L86,8.6l0.1-.2H85.9V7.9l-0.1-.1-0.1-.1-0.1-.1-0.1-.4-0.2-.3V5.5l0.1-.2L85.6,5l0.2-.2,0.1-.1V4.4l-0.2-.2L85.6,4l0.2,0.1L86,4.2l0.1,0.2L86,4.8V5l-0.2.2-0.1.1L85.6,6l0.1,0.4L85.9,7l0.2,0.8L86.3,8h0.3l0.2-.3,0.1,0.1,0.3,0.5,0.1,0.1h0.6l0.3-.1,0.4-.2L89,7.9l0.2-.3H89.1V7.4l0.2-.1,1.1-.2V7H90.2l-0.3-.1-0.3-.2-0.1-.1-0.1-.1L89,6.3l-0.1-.1-0.1-.1-0.1-.3,0.2,0.1H89L89.2,6h0.2l0.2,0.3,0.3,0.2L91.1,7l0.3,0.1L91.6,7h0l-0.2-.2L91,6.2l-0.1-.1H90.8L90.7,6l-0.1-.1V5.6h0.1l0.2,0.2L91.1,6h0.1l0.1,0.1,0.2,0.3,0.4,0.2h0.5V6.5h0.5l0.2-.2,0.1-.1H93.1L92.9,6l-0.1-.3-0.3-.1-0.1-.2-0.2-.3L92,4.9l-0.2-.2-0.3-.1-0.3-.1V4.4l0.1-.2L91.4,4h0.3V4.1l-0.1.1-0.1.1,0.6,0.2,0.2,0.1,0.2,0.2L92.7,5l0.1,0.1H93l0.1,0.1,0.3,0.4,0.2,0.2,0.2,0.1H94l0.8,0.3V6.1L94.7,6l-0.2-.1-0.3-.3,0.1-.1V5.3L94.2,5l-0.1-.5L94,4.4V4.3l-0.1-.2h0.2l0.2,0.1,0.3,0.3-0.2.3,0.1,0.1L94.7,5l0.2,0.1V5.5L95,5.6l0.3,0.2L95.4,6l0.1,0.2V6.4l-0.1.1V6.6l0.1,0.1,0.3,0.4L96,7.3V7.4l0.2-.1-0.1-.2L96,6.8l-0.1-.3V6.3L95.3,4.7V4.5l-0.1-.2-0.4-.6-0.1-.2,0.1-.6V2.5H94.7l-0.1.3L94.4,3h0V3.2l0.1,0.1,0.1,0.1-0.2-.2-0.3-.4L94,2.6l0.2-.1L94,2.3l-0.2-.2-0.2-.3-0.1-.3V0.9h0Q61.85,0.45,30.2.2H30.1L30,0l-0.5.9-0.1.3V1.3l0.2,0.3V1.7l-0.2.5-0.3.6V3.1l0.1,0.2,0.2,0.2V3.7H29l-0.6-.2H28.2l-0.9.6L27,4.4V4.5L25.9,6.6l-0.1.1-0.1.1-0.1.1L25.4,7H24.6V6.4H24V6.3H23.8l-0.1.1-0.4.3H22.9l-0.3.1-0.4.1H22.1L22,7l-0.2.2-0.4.4-0.1.2-0.1.3L21,8.2l-0.2.3-0.1.1-0.1.1H20.4L20.1,9H19.5V8.7l-0.1-.2V8.2L19.5,8V7.9h0l-0.2-.3H19.1L18.6,8l-0.3.1-0.8.4h0V9l-0.1.1-0.1.1V9.3l-0.1.1H16.9l-0.1-.1-0.2-.1-0.1-.1H16V10h0v0.1l-0.1.2v0.3l-0.1.1-0.3.4-0.3.3-0.2.1H13.9l-0.6.3-0.4.1H12.7l-0.3.3-0.1.1-0.3.1H11.9l-0.1.1v0.1l-0.2.2-0.2.3H11l-0.2.2-0.1.1-0.1.1-0.6.3-0.1.1L9.8,14l-0.1.1-0.3.2-0.1.1H9.2l-0.7.1H7.9l-0.2.1H6.6l-0.2.1-0.2.1L5.9,15l-0.2.1L5.6,15H5.5l-0.4.1L5,15.2l-0.1.1-0.1.1-0.2.4-0.1.1L4.4,16H4l-0.1.1-0.1.1-0.3.3v0.3h0L3.6,17v0.4l-0.2.3v0.7l-0.1.1L3,18.4l-0.2.2-0.1.1-0.1.1H2.3l-0.6.1H1.2l-0.1-.1H0.9l-0.2.1H0.6L0.5,19h0l-0.1.2-0.1.1v0.2L0,22.5c4.6-.1,9.2-0.1,13.8-0.2l3.3-1.1,0.4-.1v0.2h0.2l0.1-.1,0.1-.1,0.3-.1,0.1-.1,0.1-.1V20.5l0.1-.1h0.4l0.4-.2,0.6-.2h0.7l0.1-.1,0.1-.1h0.6l0.1-.1,0.1-.2,0.1-.1,0.1-.1,0.2-.1h0.2l0.1,0.1h0l0.9-.1c4.6,0.2,9.1.5,13.7,0.7h0.2v0.6l-0.2.5v0.1h0v0.5L37,21.7h0.2l0.9-.7h0.1c0.5,0.7,1,1.3,1.5,2v1.8l0.1,0.1h0.6c3.7,0.1,7.3.2,11,.2h0.5l0.3,0.1,0.2,0.1c4,4.1,8.1,8.3,12.2,12.4l0.3-.1v0.1H65l1-.4,0.7-.2,0.3-.2,0.1-.4h0.1l0.1,0.3v0.1l-0.2.1,0.4,0.1,0.9-.2L68.7,37l0.1,0.1h0.8l1,0.3h0.2l0.2-.1,0.1-.1,0.4-.7,0.2-.5V35.1l0.1-.2-0.1-.3-0.1-1V33.2h0.1l0.2,0.6,0.2,0.5-0.1.4,0.1,1.1-0.1.5v0.3l-0.1.2,0.3-.4,0.2-.7,0.2-1.5,0.1-.2,0.3-.5,0.1-.4,0.2-.2,0.4-.3,0.6-.9,0.7-.8,1.5-1.3,0.9-.5,0.6-.2,0.2-.1,0.1-.1H78.2V28.6l0.1-.1-0.1-.2L78,28.1H77.8L77.7,28l-0.1-.1-0.1-.2V27.6l0.1-.1,0.1-.1h0.1v0.1h0.3l0.2-.2V27l-0.1-.2-0.1-.2L78,26.5l-0.1.1-0.1-.2-0.1-.7,0.1,0.2h0.3L78.2,26l0.1,0.1v0.1H78.1v0.1l0.2,0.1L78.7,27l0.1,0.2-0.1.3-0.5.4H78L78.4,28l0.1,0.1h0l0.2,0.2h0.2l0.3-.2h0.1l0.3-.2,0.6-.8,0.3-.2h0.1l-0.1-.2V26.6h0.1l0.1,0.1,0.1,0.1h0.1l0.1-.1,0.1-.1,0.1-.2V26.2L81.1,26,81,25.8V25.6h0.2v0.1L81.3,26l0.2,0.4-0.2.1v0.1l0.1,0.1,0.1-.1,0.1-.1,1.6-.5,0.4-.2L85.8,26l-0.1-.2-0.2-.4-0.1.1-0.1.1H85l0.2-.2,0.2-.2,0.3-.1L86,25l0.2,0.1v0.7l0.1,0.3,0.3,0.2,0.1-.3,0.1-1.2h0.1L87.1,25l0.2,0.2-0.2.2,0.1,0.2,0.2,0.2,0.2,0.1H88l0.1-.1,0.1-.1V25.4l0.1-.1,0.1-.1h0.1l0.1-.1,0.4-.5,0.2-.2,0.1-.1,0.1-.1V23.8h0.1v0.3l0.4-.2,0.1-.1,0.1-.2V23.5L90,23.4V23.3l0.1-.2h0.4l0.1-.1,0.2-.2,0.1-.1V22.6l-0.3-.2-0.1-.3L90.2,22l-0.3-.1L90,22.1l0.2,0.3v0.2H89.9l-0.2.1-0.3.3H89.3l-0.5.2H88.4V23l0.1-.1h0.2l0.3-.2,0.1-.1L89,22.3,88.8,22V21.9l0.1-.2V21.5l-0.1-.2V21.2H88.7l-0.1.2-0.1.3-0.1.2v0.6l-0.1.2-0.2-.2L88,22.3H87.6l-0.2.1v0.2L87.6,23l0.1,0.3-0.2-.1L87.2,23,87,22.9V22.7l-0.1-.1-0.1-.1H86.6l-0.2.2-0.2.2L86,23l-0.2.2-0.3.1-0.1.1H85.2V23.3l-0.1-.1L84.7,23l-0.5-.2-0.5-.1-0.5-.2L82.8,22l-0.3-.6-0.2-.3L82.1,21V20.9l-0.5-.8L82,20.3l0.5,0.8,0.4,0.2L83,21.4,83.5,22l0.3,0.3,0.4,0.2,0.4,0.1h0.5l0.4-.2,0.2-.3,0.2-.2,0.5-.3,0.4-.3,0.1-.3,0.4-.1,0.2-.3,0.1-.3-0.2-.4-0.2.1h0.3l-0.2.1H87L86.8,20H86.3l-0.1-.1,0.1-.1,0.2-.1H87l0.1-.1,0.1-.1h0.2l0.3,0.1h0.2l0.1-.1-0.1-.1-0.1-.1-0.3-.1V19l0.6,0.1h0.3l0.1-.2V18.8l0.1-.2V18.5l-0.2-.2-0.1-.1V18.1H88l-1-.3-1-.4L85.3,17l-0.7-.2-0.2-.1-0.3-.3-0.5-.3L83.1,16l-0.4.2-0.1-.4-0.1-.2-0.2-.1-0.1-.1-0.1-.2L82,14.9l0.4,0.4,0.2,0.1,0.5,0.1,0.5,0.3L84,16l0.6,0.1,0.2,0.1L85,16.4l0.3,0.1,0.6-.2,0.3,0.1,0.1-.1,0.1-.1h0.2v0.3l0.2,0.2,0.3,0.1,0.2-.1V16.6l-0.1-.1-0.1-.1H87V16.2h0.1V16.1H87l-0.2-.2V15.8l0.1-.3-0.1-.1-0.1-.1-0.1-.1H86.4l0.5-.3,0.2-.1h0.3l0.5,0.1h0.3l0.3-.1-0.2.4-0.2.1-0.6-.1-0.3.1-0.1.2,0.1,0.2,0.2,0.2V16h0.1l0.2,0.1,0.5,0.2v0.2H88l0.1,0.2,0.2,0.1L88.7,17V16.9l-0.1-.1-0.1-.1H88.4l0.1-.1,0.1-.1h0.1l0.1,0.1,0.2-.5V16l0.1-.1L89.3,16l0.1,0.3v0.6L89.5,17v0.1H89l0.1,0.1h0.3l0.2,0.1,0.1,0.1,0.2-.1,0.1-.2V16.9l-0.3.1V16.7l0.1-.1,0.3,0.1,0.1,0.1,0.2,0.4,0.3,0.2h0.1l0.1-.2V17.1h0.2l0.1,0.3,0.2,0.1h0.8l0.1-.1,0.1-.2,0.1-.1,0.4-.1h0.2V16.9L93,16.7l0.1-.3,0.2-.2,0.2,0.1-0.1.1,0.1,0.1h0.1V16.2l0.1-.1,0.1-.1,0.1-.1-0.1-.2,0.3-.1h0.1l0.1-.1V15h0.3l0.6-.7V13.8l0.1-.2,0.1,0.3,0.1,0.3,0.2,0.1,0.3-.1h0v0.1H95.9l-0.1.1v0.1h0.4l0.1-.1V14.1h0.3l0.1-.1,0.2-.3V13.6Zm1.1-3.5h0l-0.1-.1-0.2-.1-0.1-.1H96.9l-0.1.1V9.4L97,9.5h0l0.1,0.2,0.3,0.4,0.1,0.2v0.3l0.1,0.2,0.2,0.1H98V10.7l0.1-.3-0.4-.5-0.1-.2V9.5ZM95.1,20.1l-0.6.4-0.3.1-0.3-.1-0.1.4-0.1.2-0.1.1,1.2-.8,1-.4,0.2-.2,0.2-.1,0.1-.1,0.1-.1-0.3.2ZM95.3,1.4l0.1,0.5,0.2,0.3V2.4l0.2,0.3V2.9l0.1,0.9L96,4.2h0V4.3l0.2,0.2,0.3,0.6,0.1,0.5L96.8,6l0.1,0.4V7L97,7.2l0.1,0.3,0.1,0.2,0.2,0.1,0.1-.1,0.1,0.1L97.4,8l0.1,0.2-0.3.1H97.1L97,8.1V8.3l0.1,0.2,0.2,0.1,0.1-.1h0.1l0.8,1.1L98.5,10v0.5l0.1,0.3L98.8,11v0.3l0.1,0.1,0.2,0.1,0.1,0.1-0.3-.8-0.1-.6L97,6.7,96.5,5.3l-0.3-.7-0.1-.2V4.1L96,3.8l-0.2-.6L95.3,0.9H95V1ZM93,21.2h0l-0.1.2-0.1.1-0.1.1v0.1l-0.1.2-0.3.4-0.1.1h0.1l0.2-.3,0.8-.6h0V21.4L93,21.3V21.2ZM94.1,1.1V1.5l0.2,0.1h0.6V0.9H94.5L94.4,1H94.3l-0.1-.1H93.7L93.8,1ZM100,13.7L99.8,13a1.27,1.27,0,0,0-.1-0.6L99.6,12l-0.1-.3-0.2-.2-0.1.1,0.1,0.3,0.2,0.5v0.3l0.3,1,0.1,0.6v0.5l-0.3.2v0.4l0.1,0.3v0.4l-0.1.5v0.5l-0.1.7-0.1.2v0.4l-0.4.1-0.8.3-0.7.4H97.3v0.2h0l-0.1.1v0.1H97.1l-0.1.1-0.1.1v0.1h0.2l0.2-.1h0.3l0.4-.2h0.2l0.4-.2h0.5l0.2-.1,0.1-.2,0.3-1,0.2-2.3,0.2-1.1Zm-8.8,9.5-0.2.1-0.1.1-0.1.1-0.5.3L89.1,25l-1.3,2.1-0.2.4,0.1,0.3,0.1-.4,1.4-2.3,0.6-.7,0.2-.1,0.3-.1,0.6-.6,0.3-.2,0.2-.4-0.2.1v0.1ZM78.3,28.8l-0.4.2-0.2.1-0.2.1-1.5,1-0.4.4-0.2.4,0.2-.2,1.2-1,0.2-.1,0.4-.1,0.9-.5,0.3-.3h0V28.7Zm5.4-2.4-1.8.3-0.3.1-0.2.2,3.1-.7h0.3l1.4,0.1V26.3l-0.6-.2Zm4,0.6-0.1-.2-0.1-.1-0.8-.3H86.5v0.1l0.1,0.1,0.6,0.2,0.4,0.3,0.1,0.1,0.2-.1Z" transform="translate(0.55 1.07)"/></svg>