<?xml version="1.0" encoding="UTF-8" standalone="no"?>
<svg
   xmlns:osb="http://www.openswatchbook.org/uri/2009/osb"
   xmlns:dc="http://purl.org/dc/elements/1.1/"
   xmlns:cc="http://creativecommons.org/ns#"
   xmlns:rdf="http://www.w3.org/1999/02/22-rdf-syntax-ns#"
   xmlns:svg="http://www.w3.org/2000/svg"
   xmlns="http://www.w3.org/2000/svg"
   xmlns:sodipodi="http://sodipodi.sourceforge.net/DTD/sodipodi-0.dtd"
   xmlns:inkscape="http://www.inkscape.org/namespaces/inkscape"
   version="1.1"
   x="0px"
   y="0px"
   viewBox="0 0 100.73673 181.22386"
   xml:space="preserve"
   id="svg2"
   inkscape:version="0.91 r13725"
   sodipodi:docname="noun_648290_cc.svg"
   width="100.73673"
   height="181.22386"><metadata
     id="metadata14"><rdf:RDF><cc:Work
         rdf:about=""><dc:format>image/svg+xml</dc:format><dc:type
           rdf:resource="http://purl.org/dc/dcmitype/StillImage" /><dc:title></dc:title></cc:Work></rdf:RDF></metadata><defs
     id="defs12"><linearGradient
       id="linearGradient4142"
       osb:paint="solid"><stop
         style="stop-color:#000000;stop-opacity:1;"
         offset="0"
         id="stop4144" /></linearGradient></defs><sodipodi:namedview
     pagecolor="#ffffff"
     bordercolor="#666666"
     borderopacity="1"
     objecttolerance="10"
     gridtolerance="10"
     guidetolerance="10"
     inkscape:pageopacity="0"
     inkscape:pageshadow="2"
     inkscape:window-width="1368"
     inkscape:window-height="704"
     id="namedview10"
     showgrid="false"
     inkscape:zoom="3.776"
     inkscape:cx="19.675006"
     inkscape:cy="127.34895"
     inkscape:window-x="0"
     inkscape:window-y="339"
     inkscape:window-maximized="1"
     inkscape:current-layer="svg2"
     showguides="true"
     fit-margin-top="0"
     fit-margin-left="0"
     fit-margin-right="0"
     fit-margin-bottom="0"
     units="px" /><path
     d="m 99.087559,117.71603 c 0.198175,-0.39635 0.198175,-0.7927 0.198175,-1.18905 -0.198175,-0.59452 -0.594525,-0.99087 -1.387226,-1.18905 0.396351,-0.7927 0.396351,-1.5854 -0.198175,-2.3781 -0.39635,-0.7927 -0.990875,-1.18905 -1.783576,-1.5854 -0.39635,-1.38723 0.990876,-1.98175 1.189051,-3.1708 0.39635,-1.78358 0.198175,-1.78358 -0.594525,-3.36898 l 0.7927,-1.18905 0.594525,0 0.792701,-0.39635 -1.783576,-77.288302 -0.198175,0 c -1.189051,-1.585401 -2.179927,-3.963502 -2.378102,-5.350728 -0.39635,-1.783576 -0.7927,-4.161686 -1.585401,-5.945262 -0.990875,-1.981751 -3.170802,-3.963502 -3.765327,-6.5397782 -0.39635,-2.1799263 0.198175,-4.7562028 0.39635,-7.1343042 l -67.37954,0 0.594525,0.1981751 c -0.198175,1.3872258 1.189051,2.1799263 1.981752,2.7744516 1.387225,0.7927005 2.972626,1.7835761 3.368977,3.3689771 0.594525,1.5854009 -0.396351,2.378101 1.387225,3.5671516 1.189051,0.990876 3.368977,2.378101 4.756203,2.774452 0,3.368977 0.990876,6.737962 -0.594525,9.908764 -0.594525,1.387225 -1.783576,1.387225 -2.774452,2.576276 -1.18905,1.783576 -0.198175,4.161678 -1.585401,5.747079 -0.990875,1.18905 -2.576276,1.5854 -3.963502,2.179926 -1.387226,0.594525 -2.576277,1.585401 -3.963502,1.981751 -2.774452,0.990876 -7.134305,-0.198175 -8.719706,2.179926 -0.198175,0.198175 -1.387225,3.765328 -1.387225,3.963503 0,1.783576 1.981751,1.981751 2.774451,2.972626 1.189051,1.783577 1.189051,3.765328 0.792701,5.747079 -0.39635,2.179926 -1.189051,2.378101 -2.378102,3.963502 -1.387226,1.783576 -0.594525,4.359853 -1.981751,6.143429 -1.1890506,1.387226 -2.9726266,1.189051 -4.5580276,1.981751 -2.9726267,1.387226 -1.3872258,2.179926 -1.5854009,4.954378 -0.1981751,2.378101 0.3963502,1.387226 -1.7835761,3.170802 l 0,0.198175 c -0.7927005,0.39635 -1.3872258,5.152553 -1.3872258,6.143429 0,2.576276 1.1890507,4.558027 1.5854009,7.134304 0.1981752,0.7927 -0.1981751,2.378101 0,2.774452 0.1981752,0.7927 1.1890507,1.18905 1.3872259,1.783576 0.3963502,0.990875 0.1981751,2.179926 0.7927004,3.170802 0.3963503,0.7927 1.7835761,1.585401 2.3781015,2.378101 1.3872258,0.7927 3.3689767,3.170802 4.5580277,4.558032 0.7927,0.990874 0.198175,0.792704 0.990876,1.783574 0.594525,0.59453 1.387225,0.99088 1.981751,1.38723 0.7927,0.59452 1.783576,1.38722 2.576276,1.98175 2.179927,1.98175 2.576277,2.97263 3.368977,5.94525 0.594526,2.3781 0,4.55803 0.990876,6.93613 2.179926,4.95438 2.576276,-0.59452 5.548903,-0.39635 2.179926,0.19818 6.341604,1.98175 7.72883,3.56715 0.990875,1.38723 0.990875,1.78358 0,3.36898 -0.990876,1.78358 -0.990876,1.38723 -0.990876,3.1708 0,2.57628 -2.378101,7.72883 -4.359852,9.51241 -0.594526,2.97262 0.198175,5.35073 2.774451,7.927 0.792701,0.7927 1.783576,1.38723 2.774452,2.17993 1.189051,0.99087 3.567152,2.17993 4.359853,3.1708 -2.576277,2.57628 1.18905,4.16168 2.972626,1.78358 1.585401,0.7927 3.567152,2.57627 4.558028,3.9635 0.198175,0.19817 -0.198175,1.18905 0,1.38723 0.39635,0.39635 0.990876,0.39635 1.387226,0.59452 1.783576,1.18905 2.774451,0.19818 2.378101,3.1708 0.39635,-0.19817 1.189051,2.17993 0,2.97263 0.792701,2.3781 3.765327,4.95438 1.585401,7.33248 -2.576276,0.19817 -0.594525,1.38722 -0.198175,2.17992 0.39635,0.99088 2.378101,5.54891 1.981751,6.34161 l 3.963503,0.59452 c 1.18905,-2.17992 2.576276,-6.14342 5.152553,-6.73795 2.774451,-0.59453 6.341603,2.17993 8.719705,3.1708 1.783576,0.7927 6.143429,3.1708 4.756203,-1.38722 -0.594526,-2.17993 -2.179927,-2.37811 -1.585401,-4.95438 0,-0.39635 0.39635,-1.5854 0.594525,-1.98175 1.189051,-1.5854 1.189051,-0.59453 2.576277,-1.18905 1.585401,-0.59453 3.368977,-1.38723 5.152553,-1.5854 2.378101,-0.39636 2.378101,-0.19818 1.387226,-2.17993 -0.594526,-1.38723 -1.981752,-2.3781 -1.189051,-4.16168 0.39635,-1.18905 1.585401,-1.5854 2.378101,-2.57628 0.396351,-0.59452 0.396351,-1.18905 0.792701,-1.5854 0,0 -0.39635,-0.19817 -0.594526,-0.19817 2.774452,-0.7927 -0.198175,-1.78358 -0.39635,-2.97263 1.981751,0.19818 1.585401,-2.57627 1.981751,-3.76533 0.198175,-0.59452 -0.594525,-0.7927 -0.39635,-1.38722 0.198175,-0.59453 0.990876,-0.7927 0.594525,-0.99088 0,0 1.585401,-2.57627 1.585401,-2.97262 0,-1.18905 -1.18905,-0.39635 -0.7927,-2.17993 0,-0.39635 1.387226,-2.77445 1.387226,-0.99088 0.990875,-1.18905 1.18905,-0.19817 2.378101,-1.38722 0.792701,-0.7927 2.378102,-3.9635 1.585401,-4.95438 1.387226,-0.19817 1.387226,-1.38722 2.576277,-1.18905 0.198175,-1.38723 0.198175,-2.17993 0.7927,-3.36898 0.39635,-1.18905 1.387226,-2.17992 1.981751,-3.36897 0.594521,-2.37811 0,-5.35073 -0.39635,-7.53066 z"
     id="path4"
     style="fill:#ffffff;fill-opacity:1;stroke:#4a6b8a;stroke-width:1.9817512;stroke-opacity:1"
     inkscape:connector-curvature="0" /></svg>